<svg width="402" height="402" viewBox="0 0 402 402" fill="none" xmlns="http://www.w3.org/2000/svg">
<circle cx="202.497" cy="202.271" r="117.5" fill="#3E3E3E"/>
<path d="M316.588 201.815C316.588 216.726 313.651 231.491 307.945 245.267C302.238 259.043 293.875 271.561 283.331 282.104L203.042 201.815H316.588Z" fill="#102E7E"/>
<path d="M283.331 282.104C272.788 292.648 260.27 301.012 246.494 306.718C232.718 312.424 217.953 315.361 203.042 315.361L203.042 201.815L283.331 282.104Z" fill="#FCD535"/>
<path d="M316.588 201.815C316.588 186.904 313.651 172.139 307.945 158.363C302.238 144.587 293.875 132.069 283.331 121.526L203.042 201.815H316.588Z" fill="#FCD535"/>
<path d="M283.331 121.526C262.037 100.231 233.156 88.2686 203.042 88.2686V201.815L283.331 121.526Z" fill="#102E7E"/>
<path d="M203.042 88.2686C188.131 88.2686 173.366 91.2055 159.59 96.9118C145.814 102.618 133.297 110.982 122.753 121.526L162.898 161.67L203.042 201.815V88.2686Z" fill="#008059"/>
<path d="M203.042 88.2686C188.131 88.2686 173.366 91.2055 159.59 96.9118C145.814 102.618 133.297 110.982 122.753 121.526L162.898 161.67L203.042 201.815V88.2686Z" fill="#008059"/>
<path d="M203.042 88.2686C188.131 88.2686 173.366 91.2055 159.59 96.9118C145.814 102.618 133.297 110.982 122.753 121.526L162.898 161.67L203.042 201.815V88.2686Z" fill="#FCD535"/>
<path d="M89.4951 201.815C89.4951 216.726 92.4321 231.491 98.1383 245.267C103.845 259.043 112.208 271.561 122.752 282.104L203.042 201.815L89.4951 201.815Z" fill="#008059"/>
<path d="M89.4951 201.815C89.4951 216.726 92.4321 231.491 98.1383 245.267C103.845 259.043 112.208 271.561 122.752 282.104L203.042 201.815L89.4951 201.815Z" fill="#185341"/>
<path d="M89.4951 201.815C89.4951 216.726 92.4321 231.491 98.1383 245.267C103.845 259.043 112.208 271.561 122.752 282.104L203.042 201.815L89.4951 201.815Z" fill="#FCD535"/>
<path d="M122.752 282.104C133.296 292.648 145.813 301.012 159.589 306.718C173.365 312.424 188.13 315.361 203.042 315.361L203.042 201.815L122.752 282.104Z" fill="#008059"/>
<path d="M122.752 282.104C133.296 292.648 145.813 301.012 159.589 306.718C173.365 312.424 188.13 315.361 203.042 315.361L203.042 201.815L122.752 282.104Z" fill="#185341"/>
<path d="M122.752 282.104C133.296 292.648 145.813 301.012 159.589 306.718C173.365 312.424 188.13 315.361 203.042 315.361L203.042 201.815L122.752 282.104Z" fill="#102E7E"/>
<path d="M122.752 121.525C112.208 132.069 103.845 144.586 98.1383 158.362C92.4321 172.139 89.4951 186.904 89.4951 201.815L203.042 201.815L122.752 121.525Z" fill="#008059"/>
<path d="M122.752 121.525C112.208 132.069 103.845 144.586 98.1383 158.362C92.4321 172.139 89.4951 186.904 89.4951 201.815L203.042 201.815L122.752 121.525Z" fill="#008059"/>
<path d="M122.752 121.525C112.208 132.069 103.845 144.586 98.1383 158.362C92.4321 172.139 89.4951 186.904 89.4951 201.815L203.042 201.815L122.752 121.525Z" fill="#BF0FAE"/>
<path d="M122.752 121.525C112.208 132.069 103.845 144.586 98.1383 158.362C92.4321 172.139 89.4951 186.904 89.4951 201.815L203.042 201.815L122.752 121.525Z" fill="#BF0FAE"/>
<path d="M122.752 121.525C112.208 132.069 103.845 144.586 98.1383 158.362C92.4321 172.139 89.4951 186.904 89.4951 201.815L203.042 201.815L122.752 121.525Z" fill="#008059"/>
<path d="M122.752 121.525C112.208 132.069 103.845 144.586 98.1383 158.362C92.4321 172.139 89.4951 186.904 89.4951 201.815L203.042 201.815L122.752 121.525Z" fill="#008059"/>
<path d="M122.752 121.525C112.208 132.069 103.845 144.586 98.1383 158.362C92.4321 172.139 89.4951 186.904 89.4951 201.815L203.042 201.815L122.752 121.525Z" fill="#BF0FAE"/>
<path d="M122.752 121.525C112.208 132.069 103.845 144.586 98.1383 158.362C92.4321 172.139 89.4951 186.904 89.4951 201.815L203.042 201.815L122.752 121.525Z" fill="#BF0FAE"/>
<path d="M122.752 121.525C112.208 132.069 103.845 144.586 98.1383 158.362C92.4321 172.139 89.4951 186.904 89.4951 201.815L203.042 201.815L122.752 121.525Z" fill="#008059"/>
<path d="M122.752 121.525C112.208 132.069 103.845 144.586 98.1383 158.362C92.4321 172.139 89.4951 186.904 89.4951 201.815L203.042 201.815L122.752 121.525Z" fill="#008059"/>
<path d="M122.752 121.525C112.208 132.069 103.845 144.586 98.1383 158.362C92.4321 172.139 89.4951 186.904 89.4951 201.815L203.042 201.815L122.752 121.525Z" fill="#BF0FAE"/>
<path d="M122.752 121.525C112.208 132.069 103.845 144.586 98.1383 158.362C92.4321 172.139 89.4951 186.904 89.4951 201.815L203.042 201.815L122.752 121.525Z" fill="#BF0FAE"/>
<path d="M122.752 121.525C112.208 132.069 103.845 144.586 98.1383 158.362C92.4321 172.139 89.4951 186.904 89.4951 201.815L203.042 201.815L122.752 121.525Z" fill="#008059"/>
<path d="M122.752 121.525C112.208 132.069 103.845 144.586 98.1383 158.362C92.4321 172.139 89.4951 186.904 89.4951 201.815L203.042 201.815L122.752 121.525Z" fill="#00DA16"/>
<path d="M122.752 121.525C112.208 132.069 103.845 144.586 98.1383 158.362C92.4321 172.139 89.4951 186.904 89.4951 201.815L203.042 201.815L122.752 121.525Z" fill="#BF0FAE"/>
<path d="M122.752 121.525C112.208 132.069 103.845 144.586 98.1383 158.362C92.4321 172.139 89.4951 186.904 89.4951 201.815L203.042 201.815L122.752 121.525Z" fill="#102E7E"/>
<path d="M122.752 121.525C112.208 132.069 103.845 144.586 98.1383 158.362C92.4321 172.139 89.4951 186.904 89.4951 201.815L203.042 201.815L122.752 121.525Z" fill="#008059"/>
<path d="M122.752 121.525C112.208 132.069 103.845 144.586 98.1383 158.362C92.4321 172.139 89.4951 186.904 89.4951 201.815L203.042 201.815L122.752 121.525Z" fill="#00DA16"/>
<path d="M122.752 121.525C112.208 132.069 103.845 144.586 98.1383 158.362C92.4321 172.139 89.4951 186.904 89.4951 201.815L203.042 201.815L122.752 121.525Z" fill="#BF0FAE"/>
<path d="M122.752 121.525C112.208 132.069 103.845 144.586 98.1383 158.362C92.4321 172.139 89.4951 186.904 89.4951 201.815L203.042 201.815L122.752 121.525Z" fill="#102E7E"/>
<path d="M122.752 121.525C112.208 132.069 103.845 144.586 98.1383 158.362C92.4321 172.139 89.4951 186.904 89.4951 201.815L203.042 201.815L122.752 121.525Z" fill="#008059"/>
<path d="M122.752 121.525C112.208 132.069 103.845 144.586 98.1383 158.362C92.4321 172.139 89.4951 186.904 89.4951 201.815L203.042 201.815L122.752 121.525Z" fill="#00DA16"/>
<path d="M122.752 121.525C112.208 132.069 103.845 144.586 98.1383 158.362C92.4321 172.139 89.4951 186.904 89.4951 201.815L203.042 201.815L122.752 121.525Z" fill="#BF0FAE"/>
<path d="M122.752 121.525C112.208 132.069 103.845 144.586 98.1383 158.362C92.4321 172.139 89.4951 186.904 89.4951 201.815L203.042 201.815L122.752 121.525Z" fill="#102E7E"/>
<path d="M177.238 142.065C177.953 142.484 178.872 142.244 179.291 141.53L186.118 129.883C186.537 129.168 186.298 128.249 185.583 127.831C184.868 127.412 183.949 127.651 183.53 128.366L177.462 138.718L167.109 132.65C166.395 132.231 165.476 132.471 165.057 133.185C164.638 133.9 164.877 134.819 165.592 135.238L177.238 142.065ZM158.546 72.1496L176.546 141.15L179.448 140.392L161.448 71.3924L158.546 72.1496Z" fill="#3E3E3E"/>
<path d="M177.238 142.065C177.953 142.484 178.872 142.244 179.291 141.53L186.118 129.883C186.537 129.168 186.298 128.249 185.583 127.831C184.868 127.412 183.949 127.651 183.53 128.366L177.462 138.718L167.109 132.65C166.395 132.231 165.476 132.471 165.057 133.185C164.638 133.9 164.877 134.819 165.592 135.238L177.238 142.065ZM158.546 72.1496L176.546 141.15L179.448 140.392L161.448 71.3924L158.546 72.1496Z" fill="white"/>
<path d="M220.66 153.452C221.036 154.19 221.939 154.484 222.678 154.108L234.708 147.983C235.447 147.607 235.74 146.704 235.365 145.966C234.989 145.227 234.086 144.934 233.347 145.31L222.653 150.754L217.209 140.06C216.833 139.322 215.93 139.028 215.192 139.404C214.454 139.779 214.16 140.683 214.536 141.421L220.66 153.452ZM247.571 69.307L220.571 152.307L223.423 153.235L250.423 70.235L247.571 69.307Z" fill="#DDDDDD"/>
<path d="M272.6 169.373C272.424 170.183 272.938 170.982 273.748 171.157L286.939 174.025C287.749 174.201 288.548 173.688 288.724 172.878C288.9 172.069 288.386 171.27 287.577 171.094L275.851 168.545L278.4 156.819C278.576 156.009 278.062 155.21 277.253 155.034C276.443 154.858 275.644 155.372 275.468 156.181L272.6 169.373ZM325.12 135.089L273.255 168.43L274.877 170.954L326.742 137.612L325.12 135.089Z" fill="#BABABA"/>
<path d="M260.748 226.292C259.931 226.429 259.38 227.203 259.518 228.02L261.759 241.333C261.896 242.15 262.67 242.7 263.487 242.563C264.304 242.425 264.855 241.652 264.717 240.835L262.725 229.001L274.559 227.009C275.376 226.872 275.927 226.098 275.789 225.281C275.651 224.464 274.878 223.914 274.061 224.051L260.748 226.292ZM320.867 268.549L261.867 226.549L260.127 228.993L319.127 270.993L320.867 268.549Z" fill="#727272"/>
<path d="M222.823 243.519C222.131 243.063 221.201 243.254 220.745 243.945L213.314 255.217C212.859 255.908 213.05 256.839 213.741 257.295C214.433 257.751 215.363 257.559 215.819 256.868L222.424 246.849L232.443 253.453C233.134 253.909 234.065 253.718 234.521 253.027C234.977 252.335 234.786 251.405 234.094 250.949L222.823 243.519ZM241.171 330.67L223.466 244.469L220.528 245.073L238.233 331.273L241.171 330.67Z" fill="#555555"/>
<path d="M182.491 249.637C182.417 248.812 181.689 248.203 180.863 248.277L167.417 249.479C166.592 249.553 165.983 250.282 166.057 251.107C166.13 251.932 166.859 252.541 167.684 252.468L179.637 251.399L180.706 263.351C180.779 264.176 181.508 264.785 182.333 264.711C183.158 264.638 183.767 263.909 183.694 263.084L182.491 249.637ZM126.148 317.733L182.148 250.733L179.846 248.809L123.846 315.809L126.148 317.733Z" fill="#363636"/>
<path d="M144.207 233.109C144.612 232.387 144.354 231.473 143.631 231.068L131.853 224.47C131.13 224.066 130.216 224.323 129.812 225.046C129.407 225.769 129.664 226.683 130.387 227.088L140.857 232.952L134.992 243.422C134.588 244.144 134.845 245.058 135.568 245.463C136.291 245.868 137.205 245.61 137.61 244.888L144.207 233.109ZM73.6805 253.451L143.305 233.82L142.491 230.933L72.8664 250.563L73.6805 253.451Z" fill="#303030"/>
<path d="M146.412 173.892C147.194 173.62 147.608 172.765 147.336 171.982L142.901 159.232C142.629 158.449 141.774 158.035 140.991 158.308C140.209 158.58 139.795 159.435 140.067 160.217L144.01 171.551L132.676 175.493C131.893 175.766 131.48 176.62 131.752 177.403C132.024 178.185 132.879 178.599 133.661 178.327L146.412 173.892ZM82.4219 143.417L145.266 173.825L146.572 171.125L83.7285 140.717L82.4219 143.417Z" fill="black"/>
<path d="M349.369 232.076C349.577 231.074 350.043 230.279 350.765 229.69C351.492 229.106 352.441 228.738 353.614 228.585C354.787 228.438 356.14 228.524 357.674 228.843C359.204 229.162 360.474 229.622 361.485 230.225C362.5 230.833 363.223 231.552 363.655 232.382C364.09 233.217 364.205 234.131 363.998 235.123C363.791 236.115 363.322 236.904 362.59 237.492C361.862 238.085 360.912 238.456 359.74 238.603C358.572 238.756 357.223 238.674 355.693 238.355C354.159 238.035 352.884 237.572 351.869 236.964C350.853 236.36 350.13 235.644 349.698 234.814C349.27 233.99 349.16 233.077 349.369 232.076ZM350.537 232.319C350.308 233.418 350.665 234.387 351.607 235.226C352.554 236.067 354.003 236.69 355.955 237.097C357.253 237.367 358.39 237.456 359.367 237.365C360.347 237.279 361.135 237.025 361.731 236.602C362.326 236.184 362.699 235.612 362.851 234.884C363.078 233.794 362.713 232.826 361.758 231.979C360.808 231.133 359.359 230.507 357.412 230.102C356.114 229.831 354.977 229.74 354.001 229.827C353.025 229.918 352.241 230.173 351.651 230.592C351.06 231.016 350.689 231.591 350.537 232.319Z" fill="black"/>
<path d="M346.297 244.594C346.377 244.327 346.541 244.124 346.79 243.986C347.042 243.853 347.302 243.827 347.57 243.907C347.842 243.988 348.045 244.153 348.179 244.4C348.311 244.652 348.337 244.912 348.257 245.179C348.176 245.452 348.012 245.655 347.764 245.788C347.517 245.922 347.257 245.948 346.985 245.867C346.808 245.814 346.658 245.72 346.535 245.585C346.411 245.454 346.326 245.3 346.28 245.123C346.237 244.952 346.243 244.776 346.297 244.594Z" fill="black"/>
<path d="M346.977 253.164L347.982 253.559L355.237 263.374L354.947 264.114L353.261 263.452L353.476 262.904L347.631 255.016L347.545 254.982L344.438 262.895L343.327 262.459L346.977 253.164ZM341.587 258.342L344.813 259.609L345.276 259.79L355.126 263.658L354.664 264.835L341.125 259.519L341.587 258.342Z" fill="black"/>
<path d="M337.149 268.339L338.008 268.795L340.5 275.495C340.828 276.371 341.123 277.093 341.385 277.661C341.647 278.229 341.924 278.686 342.216 279.034C342.506 279.387 342.852 279.669 343.253 279.882C343.743 280.142 344.231 280.253 344.716 280.216C345.204 280.186 345.656 280.026 346.072 279.737C346.488 279.449 346.828 279.056 347.092 278.558C347.371 278.031 347.503 277.509 347.488 276.992C347.471 276.479 347.324 276.009 347.046 275.583C346.768 275.157 346.374 274.808 345.864 274.538L346.459 273.415C347.171 273.792 347.714 274.289 348.088 274.906C348.465 275.529 348.66 276.209 348.671 276.944C348.681 277.683 348.494 278.415 348.11 279.138C347.731 279.854 347.239 280.407 346.634 280.799C346.034 281.194 345.386 281.41 344.69 281.448C343.994 281.487 343.32 281.333 342.668 280.987C342.195 280.736 341.781 280.409 341.427 280.007C341.07 279.608 340.726 279.064 340.395 278.374C340.065 277.684 339.695 276.775 339.286 275.647L337.419 270.572L337.338 270.529L333.966 276.885L332.912 276.326L337.149 268.339Z" fill="black"/>
<path d="M324.765 289.044L336.361 297.824L333.399 301.736C332.827 302.491 332.219 303.02 331.575 303.322C330.928 303.628 330.28 303.734 329.632 303.641C328.984 303.548 328.369 303.282 327.787 302.842C327.304 302.476 326.952 302.082 326.732 301.659C326.511 301.237 326.401 300.806 326.401 300.367C326.401 299.927 326.484 299.5 326.65 299.085L326.559 299.016C326.25 299.37 325.843 299.632 325.34 299.803C324.84 299.977 324.293 300.017 323.698 299.924C323.104 299.83 322.513 299.561 321.924 299.115C321.339 298.672 320.914 298.146 320.651 297.536C320.391 296.93 320.334 296.257 320.478 295.517C320.624 294.784 321.011 294.002 321.64 293.172L324.765 289.044ZM324.914 290.823L322.591 293.892C321.913 294.786 321.611 295.597 321.685 296.324C321.755 297.054 322.091 297.647 322.691 298.101C323.133 298.435 323.614 298.631 324.136 298.687C324.658 298.75 325.172 298.667 325.678 298.439C326.181 298.214 326.63 297.841 327.024 297.32L329.382 294.205L324.914 290.823ZM330.322 294.917L328.088 297.867C327.743 298.324 327.534 298.795 327.463 299.282C327.391 299.768 327.449 300.233 327.635 300.678C327.822 301.122 328.128 301.505 328.555 301.828C329.17 302.294 329.822 302.473 330.51 302.364C331.202 302.258 331.848 301.809 332.448 301.016L334.609 298.162L330.322 294.917Z" fill="black"/>
<path d="M324.052 311.283L324.915 312.107L317.634 319.738L316.771 318.914L319.953 315.579L310.293 306.362L311.21 305.401L320.87 314.618L324.052 311.283Z" fill="black"/>
<path d="M298.556 330.228L299.59 329.383C299.981 329.705 300.411 329.947 300.88 330.108C301.347 330.277 301.832 330.361 302.333 330.361C302.834 330.361 303.331 330.273 303.823 330.097C304.316 329.921 304.784 329.652 305.227 329.29C305.939 328.709 306.436 327.993 306.721 327.144C307.001 326.297 307.024 325.371 306.789 324.364C306.553 323.365 306.011 322.346 305.164 321.308C304.31 320.263 303.417 319.525 302.484 319.095C301.548 318.667 300.637 318.507 299.752 318.613C298.866 318.725 298.067 319.072 297.355 319.653C296.912 320.016 296.555 320.42 296.284 320.868C296.014 321.315 295.827 321.782 295.724 322.27C295.624 322.761 295.61 323.253 295.681 323.744C295.749 324.239 295.902 324.711 296.139 325.158L295.105 326.003C294.774 325.411 294.553 324.788 294.441 324.134C294.327 323.487 294.329 322.838 294.445 322.186C294.558 321.538 294.789 320.915 295.138 320.318C295.488 319.721 295.963 319.176 296.565 318.685C297.511 317.912 298.544 317.463 299.663 317.337C300.786 317.214 301.91 317.415 303.035 317.939C304.156 318.466 305.198 319.318 306.159 320.495C307.121 321.672 307.748 322.863 308.04 324.067C308.329 325.273 308.3 326.413 307.953 327.485C307.609 328.561 306.964 329.485 306.018 330.258C305.417 330.749 304.788 331.106 304.133 331.33C303.481 331.557 302.825 331.659 302.164 331.636C301.503 331.62 300.866 331.492 300.255 331.252C299.639 331.015 299.073 330.673 298.556 330.228Z" fill="black"/>
<path d="M263.949 338.942C264.878 338.516 265.795 338.418 266.698 338.65C267.599 338.888 268.459 339.434 269.277 340.288C270.092 341.144 270.826 342.284 271.479 343.708C272.13 345.129 272.514 346.424 272.629 347.596C272.742 348.773 272.592 349.782 272.181 350.622C271.766 351.468 271.099 352.103 270.178 352.525C269.257 352.947 268.343 353.038 267.436 352.798C266.526 352.564 265.664 352.019 264.85 351.163C264.033 350.314 263.299 349.179 262.647 347.759C261.994 346.334 261.611 345.033 261.498 343.855C261.381 342.68 261.528 341.672 261.94 340.832C262.349 339.998 263.019 339.368 263.949 338.942ZM264.446 340.027C263.426 340.494 262.858 341.357 262.741 342.613C262.627 343.874 262.985 345.411 263.816 347.223C264.369 348.428 264.972 349.396 265.625 350.128C266.276 350.866 266.948 351.349 267.642 351.578C268.331 351.809 269.014 351.77 269.689 351.46C270.701 350.996 271.264 350.128 271.379 348.857C271.496 347.589 271.139 346.052 270.31 344.244C269.758 343.039 269.157 342.07 268.508 341.336C267.855 340.604 267.184 340.125 266.497 339.899C265.805 339.674 265.122 339.717 264.446 340.027Z" fill="black"/>
<path d="M252.272 343.81C252.534 343.714 252.795 343.725 253.055 343.843C253.311 343.966 253.487 344.159 253.583 344.421C253.68 344.688 253.669 344.949 253.55 345.204C253.427 345.461 253.234 345.637 252.971 345.732C252.704 345.829 252.443 345.818 252.189 345.7C251.934 345.581 251.758 345.388 251.661 345.121C251.597 344.947 251.584 344.771 251.619 344.592C251.65 344.414 251.723 344.254 251.837 344.112C251.949 343.975 252.094 343.875 252.272 343.81Z" fill="black"/>
<path d="M245.202 361.435L241.149 347.465L242.425 347.095L246.09 359.728L246.171 359.704L248.814 356.578L249.198 357.901L246.532 361.049L245.202 361.435Z" fill="black"/>
<path d="M226.426 350.765L228.507 365.161L220.157 366.369L219.986 365.188L227.022 364.17L226.239 358.751L219.645 359.704L219.474 358.523L226.068 357.57L225.282 352.136L218.105 353.174L217.935 351.993L226.426 350.765Z" fill="black"/>
<path d="M211.525 365.947L211.564 367.14L201.023 367.491L200.984 366.299L205.59 366.145L205.146 352.8L206.473 352.756L206.918 366.101L211.525 365.947Z" fill="black"/>
<path d="M192.519 352.687L191.218 367.174L189.895 367.055L190.491 360.413L182.272 359.675L181.675 366.317L180.352 366.198L181.654 351.711L182.977 351.83L182.379 358.486L190.598 359.225L191.196 352.568L192.519 352.687Z" fill="black"/>
<path d="M145.007 357.733L149.697 343.964L150.954 344.393L146.713 356.843L146.793 356.871L150.751 355.826L150.307 357.13L146.317 358.179L145.007 357.733Z" fill="black"/>
<path d="M131.303 335.962L135.083 337.93L128.363 350.831L124.357 348.744C123.127 348.103 122.208 347.299 121.601 346.332C120.991 345.362 120.702 344.277 120.734 343.077C120.767 341.877 121.132 340.607 121.83 339.267C122.534 337.915 123.378 336.879 124.362 336.158C125.34 335.439 126.419 335.059 127.599 335.017C128.775 334.973 130.01 335.288 131.303 335.962ZM133.354 338.375L130.821 337.056C129.713 336.479 128.671 336.214 127.696 336.261C126.721 336.308 125.836 336.64 125.04 337.256C124.244 337.871 123.554 338.74 122.97 339.861C122.394 340.976 122.08 342.03 122.028 343.022C121.971 344.012 122.188 344.908 122.679 345.708C123.166 346.506 123.932 347.177 124.977 347.722L127.736 349.159L133.354 338.375Z" fill="black"/>
<path d="M103.46 326.941C104.339 325.707 105.323 324.789 106.414 324.187C107.501 323.59 108.609 323.315 109.738 323.362C110.86 323.411 111.92 323.791 112.919 324.502C113.919 325.213 114.627 326.092 115.044 327.138C115.455 328.186 115.557 329.322 115.349 330.545C115.134 331.77 114.587 332.999 113.709 334.234C112.83 335.468 111.849 336.386 110.766 336.986C109.675 337.587 108.567 337.862 107.441 337.811C106.313 337.763 105.251 337.386 104.256 336.677C103.257 335.966 102.552 335.087 102.141 334.039C101.723 332.992 101.62 331.855 101.831 330.628C102.039 329.405 102.582 328.176 103.46 326.941ZM104.514 327.691C103.759 328.752 103.29 329.786 103.107 330.795C102.921 331.808 102.992 332.733 103.32 333.57C103.648 334.408 104.201 335.104 104.98 335.659C105.756 336.211 106.593 336.504 107.492 336.539C108.391 336.575 109.289 336.342 110.186 335.841C111.079 335.337 111.904 334.553 112.661 333.488C113.416 332.427 113.885 331.393 114.068 330.384C114.252 329.375 114.181 328.45 113.855 327.609C113.528 326.771 112.974 326.075 112.195 325.52C111.415 324.966 110.576 324.671 109.677 324.636C108.775 324.598 107.877 324.83 106.984 325.334C106.088 325.841 105.265 326.627 104.514 327.691Z" fill="black"/>
<path d="M86.6329 315.663C86.3986 316.105 86.2303 316.568 86.1279 317.05C86.0223 317.535 85.9988 318.023 86.0574 318.514C86.1094 319.005 86.2531 319.484 86.4886 319.953C86.7206 320.418 87.0557 320.857 87.4937 321.268C88.1836 321.917 88.9697 322.318 89.8521 322.472C90.7344 322.626 91.6521 322.514 92.6052 322.136C93.5548 321.755 94.4772 321.089 95.3724 320.137C96.2644 319.188 96.8695 318.227 97.1879 317.252C97.5063 316.278 97.5598 315.35 97.3485 314.469C97.1304 313.588 96.6644 312.812 95.9503 312.14C95.2984 311.527 94.5861 311.13 93.8135 310.95C93.0409 310.769 92.2619 310.817 91.4765 311.092C90.6877 311.364 89.948 311.874 89.2576 312.622L89.0395 312.232L92.4338 315.424L91.6164 316.293L87.5909 312.508L88.4083 311.639C89.2581 310.735 90.1756 310.125 91.1607 309.81C92.1459 309.495 93.1262 309.459 94.1016 309.7C95.0771 309.941 95.9788 310.451 96.8066 311.229C97.7311 312.099 98.3308 313.082 98.6057 314.179C98.8774 315.279 98.8237 316.418 98.4445 317.595C98.0587 318.773 97.3469 319.913 96.3089 321.017C95.5273 321.849 94.7114 322.495 93.8614 322.957C93.0114 323.418 92.1608 323.697 91.3096 323.794C90.455 323.887 89.6316 323.799 88.8395 323.528C88.0441 323.261 87.3101 322.812 86.6375 322.179C86.058 321.634 85.6144 321.045 85.3069 320.411C84.9958 319.774 84.8083 319.124 84.7443 318.459C84.6736 317.795 84.7173 317.143 84.8752 316.505C85.0264 315.868 85.2811 315.275 85.6395 314.728L86.6329 315.663Z" fill="black"/>
<path d="M86.9948 301.417L75.831 310.741L70.4222 304.266L71.338 303.501L75.8954 308.957L80.0981 305.447L75.8276 300.334L76.7434 299.569L81.0139 304.682L85.2276 301.163L80.5792 295.597L81.495 294.832L86.9948 301.417Z" fill="black"/>
<path d="M52.0027 275.187L64.9452 268.549L65.5513 269.731L53.8475 275.734L53.8864 275.809L57.4581 277.809L56.2321 278.438L52.6348 276.419L52.0027 275.187Z" fill="black"/>
<path d="M45.9032 250.707C45.1648 251.048 44.6738 251.597 44.4302 252.354C44.1866 253.11 44.2225 253.942 44.5379 254.85C44.76 255.489 45.0653 256.015 45.4538 256.426C45.8408 256.833 46.277 257.108 46.7624 257.25C47.2418 257.389 47.7275 257.373 48.2195 257.203C48.5818 257.077 48.8722 256.888 49.0907 256.637C49.3092 256.386 49.471 256.094 49.5761 255.762C49.6752 255.426 49.7382 255.074 49.765 254.703C49.7902 254.329 49.7923 253.96 49.7713 253.596L49.684 252.002C49.6525 251.522 49.6545 251.03 49.6902 250.527C49.7258 250.023 49.8238 249.54 49.9842 249.079C50.1386 248.614 50.3835 248.201 50.7189 247.839C51.0482 247.474 51.4991 247.192 52.0717 246.993C52.8052 246.738 53.5309 246.699 54.2489 246.876C54.9669 247.052 55.6216 247.436 56.213 248.028C56.7999 248.621 57.2658 249.414 57.6107 250.407C57.9354 251.342 58.063 252.207 57.9936 253.003C57.9198 253.801 57.6761 254.492 57.2627 255.077C56.8493 255.661 56.2888 256.104 55.5813 256.405L55.1339 255.117C55.6596 254.884 56.0559 254.546 56.3228 254.102C56.5898 253.659 56.7347 253.152 56.7575 252.583C56.7758 252.015 56.6778 251.423 56.4634 250.806C56.2258 250.121 55.9004 249.553 55.4875 249.1C55.0684 248.644 54.6004 248.335 54.0833 248.174C53.5601 248.01 53.0234 248.023 52.4733 248.214C52.0081 248.376 51.6609 248.632 51.4317 248.982C51.1981 249.334 51.0492 249.764 50.9852 250.272C50.9197 250.776 50.9028 251.341 50.9346 251.967L51.0224 253.778C51.0748 254.968 50.9203 255.959 50.5588 256.751C50.1974 257.543 49.5761 258.092 48.695 258.398C47.957 258.655 47.2401 258.683 46.5443 258.484C45.8425 258.281 45.2177 257.897 44.67 257.33C44.1163 256.761 43.6927 256.053 43.3991 255.208C43.1024 254.353 42.9964 253.543 43.0811 252.777C43.1658 252.011 43.4165 251.34 43.833 250.764C44.2435 250.185 44.793 249.761 45.4815 249.492L45.9032 250.707Z" fill="black"/>
<path d="M53.4479 237.586L39.2149 240.584L38.9411 239.285L45.4669 237.91L43.7656 229.834L37.2398 231.209L36.966 229.91L51.199 226.911L51.4728 228.211L44.9331 229.588L46.6344 237.664L53.1741 236.286L53.4479 237.586Z" fill="black"/>
<path d="M35.5889 219.738L50.0348 218.038L50.19 219.357L35.7441 221.057L35.5889 219.738Z" fill="black"/>
<path d="M49.3249 210.667L34.7875 211.152L34.624 206.247C34.5925 205.3 34.7318 204.507 35.0421 203.867C35.3522 203.221 35.7883 202.731 36.3503 202.395C36.9124 202.058 37.5578 201.878 38.2865 201.854C38.8923 201.834 39.4138 201.918 39.8512 202.107C40.2886 202.296 40.6457 202.562 40.9224 202.903C41.199 203.244 41.4037 203.628 41.5364 204.055L41.6499 204.051C41.6675 203.582 41.8179 203.122 42.1014 202.672C42.3801 202.222 42.7798 201.846 43.3003 201.545C43.8209 201.243 44.4502 201.08 45.1885 201.055C45.922 201.031 46.5828 201.172 47.171 201.48C47.7545 201.787 48.2232 202.274 48.577 202.939C48.9259 203.6 49.1177 204.451 49.1524 205.493L49.3249 210.667ZM48.0881 209.38L47.9599 205.532C47.9225 204.411 47.6465 203.591 47.1318 203.073C46.6169 202.55 45.9832 202.301 45.2308 202.326C44.6772 202.344 44.18 202.496 43.7395 202.781C43.294 203.061 42.9469 203.449 42.6981 203.945C42.4492 204.437 42.3356 205.009 42.3574 205.662L42.4875 209.566L48.0881 209.38ZM41.3092 209.606L41.1859 205.907C41.1669 205.335 41.0318 204.837 40.7809 204.414C40.5299 203.992 40.1922 203.666 39.7677 203.439C39.3432 203.212 38.8636 203.107 38.3289 203.125C37.5575 203.15 36.9389 203.422 36.4729 203.94C36.0022 204.458 35.7834 205.213 35.8165 206.207L35.9358 209.785L41.3092 209.606Z" fill="black"/>
<path d="M38.1498 166.608L52.4121 169.464L52.1513 170.766L39.254 168.183L39.2372 168.267L40.7894 172.054L39.4383 171.784L37.8779 167.966L38.1498 166.608Z" fill="black"/>
<path d="M56.0225 156.325C55.7226 157.303 55.1857 158.052 54.4119 158.572C53.635 159.087 52.6555 159.365 51.4733 159.409C50.2925 159.448 48.953 159.237 47.4547 158.778C45.9609 158.319 44.7384 157.744 43.7871 157.051C42.8327 156.352 42.1788 155.569 41.8255 154.703C41.469 153.831 41.4394 152.911 41.7366 151.942C42.0338 150.973 42.5738 150.23 43.3566 149.713C44.1363 149.189 45.1165 148.908 46.2973 148.869C47.4749 148.824 48.8106 149.031 50.3044 149.489C51.8027 149.949 53.0291 150.528 53.9835 151.227C54.9393 151.921 55.5938 152.702 55.9472 153.568C56.2974 154.428 56.3225 155.347 56.0225 156.325ZM54.8818 155.975C55.211 154.902 54.9451 153.904 54.0841 152.981C53.2187 152.057 51.8331 151.303 49.9274 150.718C48.6599 150.329 47.5357 150.135 46.5547 150.137C45.5706 150.132 44.7624 150.312 44.1302 150.678C43.4994 151.039 43.0749 151.575 42.8569 152.286C42.5305 153.349 42.8039 154.347 43.6771 155.279C44.5457 156.209 45.9306 156.966 47.8317 157.549C49.0992 157.938 50.2227 158.134 51.2023 158.137C52.1833 158.136 52.9869 157.954 53.6132 157.592C54.2409 157.225 54.6638 156.686 54.8818 155.975Z" fill="black"/>
<path d="M56.1406 126.556C55.3776 126.274 54.6421 126.313 53.9341 126.673C53.2262 127.034 52.6615 127.646 52.2401 128.51C51.9433 129.119 51.786 129.706 51.7682 130.271C51.7526 130.832 51.8655 131.335 52.1071 131.78C52.3464 132.218 52.7001 132.551 53.1683 132.779C53.513 132.948 53.8514 133.02 54.1837 132.998C54.5159 132.976 54.8369 132.885 55.1466 132.725C55.4541 132.559 55.7486 132.355 56.03 132.113C56.3134 131.867 56.5767 131.608 56.8196 131.336L57.888 130.151C58.2063 129.79 58.5565 129.444 58.9387 129.114C59.3208 128.785 59.7322 128.514 60.1727 128.302C60.611 128.084 61.0768 127.966 61.57 127.948C62.061 127.924 62.5789 128.045 63.1236 128.311C63.8215 128.651 64.361 129.138 64.7421 129.772C65.1231 130.406 65.3124 131.141 65.3101 131.977C65.3034 132.812 65.0697 133.701 64.6089 134.646C64.175 135.535 63.6515 136.236 63.0382 136.748C62.4206 137.258 61.7588 137.573 61.0527 137.692C60.3466 137.811 59.6374 137.726 58.9252 137.437L59.523 136.211C60.0587 136.42 60.5779 136.462 61.0807 136.339C61.5834 136.215 62.0447 135.961 62.4644 135.575C62.8799 135.188 63.2309 134.701 63.5173 134.113C63.8349 133.462 64.0087 132.831 64.0387 132.218C64.0665 131.6 63.9552 131.05 63.7049 130.57C63.4523 130.083 63.0643 129.712 62.5409 129.457C62.0983 129.241 61.672 129.175 61.2621 129.26C60.8478 129.342 60.4379 129.54 60.0323 129.853C59.6287 130.162 59.2164 130.548 58.7953 131.012L57.5729 132.352C56.7662 133.228 55.9546 133.817 55.1381 134.12C54.3215 134.422 53.4941 134.369 52.6557 133.96C51.9536 133.617 51.4279 133.129 51.0786 132.495C50.7271 131.855 50.5592 131.141 50.5747 130.353C50.5881 129.559 50.7909 128.759 51.1833 127.955C51.5797 127.142 52.0795 126.496 52.6825 126.015C53.2856 125.535 53.938 125.24 54.64 125.129C55.3398 125.012 56.0278 125.103 56.7041 125.401L56.1406 126.556Z" fill="black"/>
<path d="M71.6505 108.011C72.9136 108.848 73.864 109.801 74.5014 110.871C75.135 111.938 75.4468 113.036 75.4371 114.165C75.426 115.288 75.0818 116.361 74.4046 117.383C73.7274 118.406 72.8728 119.143 71.8406 119.595C70.8071 120.041 69.6755 120.18 68.4459 120.013C67.2149 119.839 65.9678 119.334 64.7046 118.498C63.4414 117.661 62.4918 116.711 61.8556 115.648C61.2181 114.578 60.9063 113.48 60.92 112.353C60.9297 111.224 61.2719 110.15 61.9465 109.131C62.6237 108.109 63.479 107.375 64.5125 106.929C65.5447 106.477 66.6776 106.336 67.9112 106.506C69.1409 106.673 70.3873 107.175 71.6505 108.011ZM70.9367 109.089C69.8511 108.37 68.8012 107.936 67.787 107.786C66.7688 107.634 65.8465 107.736 65.0203 108.092C64.194 108.448 63.5168 109.024 62.9886 109.822C62.4631 110.615 62.1977 111.462 62.1925 112.361C62.1873 113.261 62.45 114.15 62.9805 115.03C63.5137 115.906 64.325 116.704 65.4145 117.426C66.5 118.145 67.5499 118.579 68.5642 118.728C69.5784 118.878 70.5006 118.776 71.3309 118.423C72.1571 118.067 72.8343 117.49 73.3625 116.693C73.8907 115.896 74.1573 115.047 74.1625 114.148C74.1704 113.244 73.9077 112.355 73.3745 111.479C72.8374 110.601 72.0248 109.804 70.9367 109.089Z" fill="black"/>
<path d="M82.8454 105.454L71.7861 96.006L72.6488 94.9962L82.8009 103.669L87.3033 98.3986L88.2106 99.1736L82.8454 105.454Z" fill="black"/>
<path d="M112.151 78.0796C111.397 78.6212 110.624 78.9612 109.831 79.0994C109.039 79.2377 108.298 79.181 107.61 78.9292C106.919 78.6736 106.35 78.2344 105.902 77.6115C105.551 77.1232 105.326 76.5944 105.225 76.025C105.122 75.4518 105.146 74.8925 105.296 74.3471C105.444 73.7979 105.709 73.3189 106.091 72.9099L106.046 72.8464C105.344 73.0945 104.638 73.0977 103.927 72.8559C103.214 72.6103 102.632 72.1689 102.18 71.5318C101.753 70.9463 101.525 70.3117 101.494 69.6282C101.463 68.9447 101.613 68.2804 101.942 67.6355C102.273 66.9839 102.769 66.4205 103.43 65.9452C104.087 65.4727 104.776 65.185 105.495 65.0822C106.211 64.9755 106.888 65.0457 107.526 65.2926C108.168 65.5368 108.703 65.9516 109.129 66.5371C109.579 67.1704 109.807 67.866 109.816 68.6239C109.821 69.378 109.595 70.0449 109.137 70.6247L109.183 70.6882C109.69 70.4522 110.225 70.3532 110.789 70.3912C111.352 70.4292 111.891 70.587 112.406 70.8645C112.917 71.1383 113.349 71.5193 113.699 72.0076C114.147 72.6304 114.38 73.3115 114.398 74.0506C114.417 74.7832 114.235 75.5031 113.851 76.2104C113.471 76.9149 112.905 77.538 112.151 78.0796ZM111.455 77.1107C112.016 76.7073 112.436 76.2536 112.715 75.7497C112.996 75.2392 113.128 74.7214 113.112 74.1964C113.1 73.6686 112.93 73.1759 112.601 72.7183C112.261 72.2454 111.834 71.9142 111.318 71.7247C110.8 71.5314 110.251 71.4804 109.669 71.5718C109.085 71.6594 108.524 71.8966 107.985 72.2835C107.447 72.6703 107.041 73.1281 106.768 73.6567C106.496 74.1788 106.369 74.7161 106.387 75.2687C106.407 75.8146 106.586 76.3241 106.926 76.797C107.255 77.2545 107.664 77.5759 108.152 77.761C108.645 77.9434 109.178 77.9832 109.751 77.8802C110.325 77.7706 110.893 77.5142 111.455 77.1107ZM107.322 71.3607C107.783 71.0291 108.126 70.634 108.351 70.1754C108.575 69.7168 108.671 69.2424 108.64 68.752C108.609 68.2551 108.439 67.788 108.131 67.3508C107.818 66.9229 107.437 66.6196 106.987 66.441C106.536 66.2584 106.061 66.2062 105.563 66.2841C105.066 66.3555 104.583 66.5597 104.114 66.8968C103.645 67.234 103.293 67.6294 103.06 68.083C102.827 68.5301 102.725 68.9969 102.754 69.4834C102.784 69.9632 102.956 70.4171 103.269 70.845C103.578 71.2822 103.961 71.5959 104.418 71.7861C104.876 71.9697 105.359 72.0283 105.865 71.9619C106.375 71.8927 106.861 71.6923 107.322 71.3607Z" fill="black"/>
<path d="M129.448 66.9886L122.905 53.998L124.091 53.4005L130.098 65.3255L136.288 62.2072L136.825 63.2728L129.448 66.9886Z" fill="black"/>
<path d="M147.905 43.2135L149.153 42.7592L152.447 51.8091C152.785 52.739 152.87 53.6504 152.701 54.5432C152.531 55.4316 152.133 56.2288 151.508 56.9349C150.886 57.6349 150.062 58.172 149.034 58.5461C148.01 58.9185 147.033 59.0351 146.1 58.8959C145.168 58.7566 144.351 58.4014 143.649 57.8305C142.947 57.2595 142.427 56.509 142.089 55.5791L138.795 46.5293L140.043 46.075L143.305 55.0381C143.569 55.7634 143.967 56.3516 144.499 56.8029C145.03 57.2498 145.648 57.5287 146.353 57.6397C147.063 57.7491 147.814 57.6597 148.606 57.3715C149.398 57.0832 150.031 56.669 150.505 56.1288C150.978 55.5886 151.272 54.9777 151.387 54.296C151.504 53.6083 151.431 52.9018 151.167 52.1766L147.905 43.2135Z" fill="black"/>
<path d="M171.444 37.1165L174.496 51.3381L173.232 51.6094L162.274 41.5032L162.163 41.527L164.718 53.4363L163.42 53.715L160.368 39.4933L161.625 39.2236L172.614 49.3377L172.725 49.3138L170.166 37.3906L171.444 37.1165Z" fill="black"/>
<path d="M183.918 49.9993L182.53 50.1093L186.656 35.1912L188.072 35.079L194.496 49.1608L193.108 49.2708L187.55 36.8516L187.451 36.8595L183.918 49.9993ZM184.476 44.3623L191.669 43.7921L191.764 44.9816L184.57 45.5518L184.476 44.3623Z" fill="black"/>
<path d="M222.642 50.6437L222.811 49.6854L228.417 45.2505C229.15 44.6681 229.746 44.1649 230.205 43.7411C230.664 43.3172 231.015 42.9126 231.256 42.5272C231.501 42.1426 231.664 41.7265 231.742 41.2788C231.839 40.7333 231.794 40.235 231.609 39.7842C231.43 39.3294 231.139 38.9488 230.736 38.6422C230.333 38.3356 229.855 38.1334 229.3 38.0356C228.712 37.932 228.175 37.9671 227.687 38.1408C227.205 38.3153 226.803 38.6004 226.484 38.996C226.164 39.3915 225.954 39.8738 225.854 40.4427L224.602 40.2219C224.741 39.4292 225.047 38.7595 225.518 38.2128C225.995 37.6622 226.581 37.268 227.277 37.03C227.978 36.7929 228.731 36.7455 229.538 36.8877C230.335 37.0283 231.014 37.3257 231.573 37.7801C232.133 38.2298 232.539 38.7797 232.79 39.4297C233.04 40.0797 233.102 40.7684 232.973 41.4958C232.881 42.0228 232.697 42.5169 232.424 42.9783C232.155 43.4405 231.743 43.9353 231.188 44.4625C230.634 44.9898 229.883 45.6219 228.936 46.3588L224.684 49.6982L224.667 49.7892L231.753 51.0382L231.546 52.2133L222.642 50.6437Z" fill="black"/>
<path d="M246.013 55.8969L250.756 42.1465L255.395 43.7468C256.291 44.0556 256.982 44.4693 257.469 44.988C257.961 45.5082 258.263 46.0909 258.376 46.7359C258.489 47.3809 258.427 48.0481 258.189 48.7374C257.992 49.3104 257.726 49.7673 257.393 50.1082C257.06 50.4492 256.685 50.6878 256.267 50.8242C255.85 50.9606 255.418 51.0145 254.972 50.9859L254.935 51.0934C255.367 51.2776 255.743 51.5824 256.062 52.008C256.382 52.4291 256.591 52.9366 256.686 53.5306C256.782 54.1246 256.709 54.7707 256.468 55.4689C256.229 56.1627 255.861 56.7294 255.364 57.1689C254.868 57.604 254.246 57.8678 253.498 57.9603C252.756 58.0499 251.892 57.9249 250.908 57.5852L246.013 55.8969ZM247.658 55.202L251.297 56.4573C252.357 56.8232 253.222 56.8584 253.89 56.5629C254.562 56.2689 255.021 55.7661 255.267 55.0544C255.447 54.5307 255.483 54.0122 255.375 53.499C255.272 52.9828 255.034 52.5199 254.659 52.1102C254.289 51.7021 253.795 51.3915 253.178 51.1784L249.485 49.9046L247.658 55.202ZM249.869 48.7901L253.367 49.9967C253.909 50.1835 254.422 50.2353 254.907 50.152C255.391 50.0687 255.815 49.8694 256.18 49.5543C256.544 49.2391 256.813 48.8287 256.987 48.3229C257.239 47.5933 257.207 46.9184 256.89 46.2982C256.574 45.6735 255.946 45.199 255.006 44.8748L251.623 43.7075L249.869 48.7901Z" fill="black"/>
<path d="M267.08 49.4691L267.595 48.3928L277.109 52.9448L276.594 54.0211L272.436 52.0317L266.673 64.0764L265.475 63.5031L271.238 51.4585L267.08 49.4691Z" fill="black"/>
<path d="M293.83 68.288L292.709 67.5632C292.895 67.0917 292.994 66.6083 293.004 66.113C293.02 65.6163 292.952 65.1294 292.798 64.6522C292.644 64.175 292.408 63.7292 292.089 63.3147C291.771 62.9003 291.371 62.5376 290.89 62.2265C290.119 61.7279 289.285 61.4737 288.389 61.4641C287.497 61.457 286.609 61.7197 285.723 62.2524C284.844 62.7836 284.041 63.6118 283.313 64.7371C282.581 65.8704 282.153 66.9468 282.029 67.9664C281.91 68.9886 282.036 69.9048 282.409 70.7151C282.788 71.5241 283.363 72.1778 284.135 72.6765C284.616 72.9875 285.111 73.2031 285.62 73.3233C286.128 73.4435 286.63 73.4778 287.126 73.4261C287.624 73.3705 288.097 73.2331 288.543 73.014C288.993 72.7975 289.394 72.5075 289.748 72.144L290.869 72.8688C290.407 73.3652 289.882 73.7673 289.294 74.0751C288.713 74.3815 288.095 74.5793 287.439 74.6687C286.788 74.7607 286.124 74.732 285.448 74.5826C284.772 74.4333 284.108 74.1478 283.456 73.7263C282.43 73.0631 281.686 72.218 281.222 71.191C280.761 70.1599 280.607 69.0287 280.76 67.7972C280.917 66.5684 281.409 65.3157 282.234 64.0393C283.059 62.7629 283.999 61.8007 285.055 61.1527C286.115 60.5073 287.209 60.1852 288.336 60.1863C289.465 60.1834 290.543 60.5136 291.569 61.1768C292.221 61.5983 292.754 62.0866 293.167 62.6415C293.583 63.1925 293.882 63.7858 294.063 64.4215C294.251 65.0559 294.324 65.701 294.284 66.3569C294.247 67.0154 294.096 67.6591 293.83 68.288Z" fill="black"/>
<path d="M316.428 102.718C315.904 102.1 315.561 101.442 315.396 100.743C315.239 100.045 315.258 99.3645 315.454 98.702C315.653 98.0432 316.028 97.4644 316.58 96.9657L317.411 97.9463C316.85 98.4778 316.562 99.1193 316.547 99.8705C316.536 100.619 316.799 101.311 317.338 101.946C317.758 102.441 318.248 102.782 318.811 102.97C319.377 103.154 319.957 103.18 320.553 103.048C321.155 102.916 321.716 102.63 322.236 102.189C322.775 101.726 323.152 101.205 323.368 100.625C323.587 100.041 323.646 99.4515 323.544 98.8552C323.445 98.2625 323.188 97.7205 322.771 97.2293C322.46 96.8542 322.089 96.5415 321.659 96.2911C321.23 96.0407 320.815 95.8804 320.414 95.8104L319.685 94.6871L325.641 90.7841L330.288 96.2669L329.378 97.0384L325.452 92.4062L321.364 95.1077L321.41 95.1619C321.824 95.233 322.244 95.3886 322.671 95.6287C323.101 95.8725 323.483 96.1912 323.817 96.5849C324.371 97.2387 324.712 97.9588 324.838 98.7452C324.968 99.5353 324.885 100.316 324.59 101.088C324.301 101.86 323.799 102.55 323.084 103.156C322.383 103.75 321.626 104.128 320.813 104.289C320.007 104.451 319.219 104.399 318.448 104.134C317.68 103.873 317.007 103.401 316.428 102.718Z" fill="black"/>
<path d="M345.415 118.362L346.101 119.499L337.856 124.477C337.009 124.989 336.131 125.248 335.223 125.254C334.318 125.258 333.459 125.022 332.646 124.545C331.839 124.07 331.153 123.364 330.588 122.428C330.025 121.495 329.722 120.558 329.679 119.617C329.635 118.675 329.826 117.804 330.251 117.006C330.676 116.207 331.312 115.552 332.159 115.041L340.404 110.063L341.09 111.2L332.925 116.13C332.264 116.529 331.764 117.033 331.423 117.642C331.087 118.249 330.933 118.909 330.96 119.623C330.99 120.34 331.222 121.06 331.658 121.782C332.093 122.503 332.622 123.044 333.243 123.405C333.865 123.765 334.521 123.936 335.212 123.917C335.909 123.899 336.588 123.691 337.249 123.292L345.415 118.362Z" fill="black"/>
<path d="M351.059 137.983C351.766 137.58 352.209 136.991 352.387 136.217C352.566 135.443 352.46 134.617 352.069 133.739C351.794 133.12 351.445 132.622 351.023 132.245C350.603 131.873 350.145 131.636 349.649 131.535C349.16 131.437 348.677 131.494 348.201 131.706C347.851 131.862 347.578 132.074 347.381 132.343C347.185 132.612 347.048 132.917 346.972 133.257C346.901 133.599 346.868 133.956 346.873 134.327C346.88 134.702 346.909 135.07 346.96 135.431L347.182 137.011C347.254 137.487 347.294 137.978 347.301 138.482C347.308 138.987 347.251 139.476 347.13 139.95C347.016 140.426 346.807 140.859 346.503 141.248C346.206 141.639 345.781 141.958 345.227 142.205C344.518 142.521 343.798 142.621 343.067 142.506C342.337 142.391 341.652 142.063 341.013 141.524C340.378 140.983 339.847 140.232 339.419 139.272C339.016 138.368 338.816 137.516 338.818 136.717C338.824 135.916 339.008 135.207 339.371 134.589C339.733 133.972 340.254 133.483 340.934 133.124L341.488 134.369C340.984 134.646 340.618 135.016 340.39 135.481C340.161 135.945 340.06 136.462 340.085 137.031C340.115 137.599 340.263 138.181 340.528 138.777C340.823 139.439 341.195 139.978 341.645 140.395C342.101 140.814 342.594 141.082 343.123 141.198C343.658 141.318 344.191 141.259 344.723 141.022C345.173 140.822 345.498 140.537 345.696 140.169C345.899 139.799 346.011 139.357 346.032 138.845C346.055 138.338 346.024 137.774 345.939 137.153L345.698 135.355C345.546 134.174 345.616 133.174 345.909 132.354C346.202 131.534 346.774 130.934 347.627 130.555C348.34 130.237 349.052 130.148 349.762 130.288C350.479 130.43 351.134 130.76 351.727 131.278C352.327 131.799 352.809 132.468 353.173 133.286C353.541 134.112 353.716 134.91 353.696 135.681C353.676 136.452 353.483 137.141 353.117 137.75C352.757 138.362 352.245 138.83 351.582 139.157L351.059 137.983Z" fill="black"/>
<path d="M346.068 156.208L344.835 152.129L358.758 147.921L360.065 152.245C360.467 153.573 360.533 154.792 360.265 155.901C359.999 157.016 359.425 157.981 358.543 158.796C357.662 159.612 356.498 160.238 355.053 160.675C353.593 161.116 352.262 161.236 351.059 161.036C349.861 160.839 348.835 160.333 347.981 159.518C347.127 158.707 346.49 157.604 346.068 156.208ZM346.361 153.055L347.187 155.788C347.549 156.985 348.087 157.915 348.803 158.579C349.518 159.244 350.374 159.645 351.37 159.784C352.367 159.923 353.47 159.81 354.681 159.444C355.88 159.077 356.853 158.565 357.6 157.909C358.348 157.257 358.836 156.477 359.066 155.566C359.297 154.661 359.241 153.644 358.9 152.515L358 149.537L346.361 153.055Z" fill="black"/>
<path d="M362.891 167.772L364.067 167.57L365.852 177.965L364.676 178.166L363.896 173.624L350.736 175.883L350.511 174.574L363.671 172.315L362.891 167.772Z" fill="black"/>
</svg>
